<?xml version="1.0" encoding="utf-8" standalone="no"?>
<!DOCTYPE svg PUBLIC "-//W3C//DTD SVG 1.1//EN"
  "http://www.w3.org/Graphics/SVG/1.1/DTD/svg11.dtd">
<svg xmlns:xlink="http://www.w3.org/1999/xlink" width="285.44pt" height="457.92pt" viewBox="0 0 285.44 457.92" xmlns="http://www.w3.org/2000/svg" version="1.1">
 <metadata>
  <rdf:RDF xmlns:dc="http://purl.org/dc/elements/1.1/" xmlns:cc="http://creativecommons.org/ns#" xmlns:rdf="http://www.w3.org/1999/02/22-rdf-syntax-ns#">
   <cc:Work>
    <dc:type rdf:resource="http://purl.org/dc/dcmitype/StillImage"/>
    <dc:date>2026-08-03T02:30:38.138780</dc:date>
    <dc:format>image/svg+xml</dc:format>
    <dc:creator>
     <cc:Agent>
      <dc:title>Matplotlib v3.11.0, https://matplotlib.org/</dc:title>
     </cc:Agent>
    </dc:creator>
   </cc:Work>
  </rdf:RDF>
 </metadata>
 <defs>
  <style type="text/css">*{stroke-linejoin: round; stroke-linecap: butt}</style>
 </defs>
 <g id="figure_1">
  <g id="patch_1">
   <path d="M 0 457.92 
L 285.44 457.92 
L 285.44 0 
L 0 0 
L 0 457.92 
z
" style="fill: none"/>
  </g>
  <g id="axes_1">
   <g id="patch_2">
    <path d="M 7.2 450.72 
L 278.24 450.72 
L 278.24 7.2 
L 7.2 7.2 
L 7.2 450.72 
z
" style="fill: none"/>
   </g>
   <g id="matplotlib.axis_1">
    <g id="xtick_1">
     <g id="line2d_1">
      <defs>
       <path id="m91ad726e62" d="M 0 0 
L 0 3.5 
" style="stroke: #000000; stroke-width: 0.8"/>
      </defs>
      <g>
       <use xlink:href="#m91ad726e62" x="12.128" y="228.96" style="stroke: #000000; stroke-width: 0.8"/>
      </g>
     </g>
    </g>
    <g id="xtick_2">
     <g id="line2d_2">
      <g>
       <use xlink:href="#m91ad726e62" x="21.984" y="228.96" style="stroke: #000000; stroke-width: 0.8"/>
      </g>
     </g>
    </g>
    <g id="xtick_3">
     <g id="line2d_3">
      <g>
       <use xlink:href="#m91ad726e62" x="31.84" y="228.96" style="stroke: #000000; stroke-width: 0.8"/>
      </g>
     </g>
    </g>
    <g id="xtick_4">
     <g id="line2d_4">
      <g>
       <use xlink:href="#m91ad726e62" x="41.696" y="228.96" style="stroke: #000000; stroke-width: 0.8"/>
      </g>
     </g>
    </g>
    <g id="xtick_5">
     <g id="line2d_5">
      <g>
       <use xlink:href="#m91ad726e62" x="51.552" y="228.96" style="stroke: #000000; stroke-width: 0.8"/>
      </g>
     </g>
    </g>
    <g id="xtick_6">
     <g id="line2d_6">
      <g>
       <use xlink:href="#m91ad726e62" x="61.408" y="228.96" style="stroke: #000000; stroke-width: 0.8"/>
      </g>
     </g>
    </g>
    <g id="xtick_7">
     <g id="line2d_7">
      <g>
       <use xlink:href="#m91ad726e62" x="71.264" y="228.96" style="stroke: #000000; stroke-width: 0.8"/>
      </g>
     </g>
    </g>
    <g id="xtick_8">
     <g id="line2d_8">
      <g>
       <use xlink:href="#m91ad726e62" x="81.12" y="228.96" style="stroke: #000000; stroke-width: 0.8"/>
      </g>
     </g>
    </g>
    <g id="xtick_9">
     <g id="line2d_9">
      <g>
       <use xlink:href="#m91ad726e62" x="90.976" y="228.96" style="stroke: #000000; stroke-width: 0.8"/>
      </g>
     </g>
    </g>
    <g id="xtick_10">
     <g id="line2d_10">
      <g>
       <use xlink:href="#m91ad726e62" x="100.832" y="228.96" style="stroke: #000000; stroke-width: 0.8"/>
      </g>
     </g>
    </g>
    <g id="xtick_11">
     <g id="line2d_11">
      <g>
       <use xlink:href="#m91ad726e62" x="110.688" y="228.96" style="stroke: #000000; stroke-width: 0.8"/>
      </g>
     </g>
    </g>
    <g id="xtick_12">
     <g id="line2d_12">
      <g>
       <use xlink:href="#m91ad726e62" x="120.544" y="228.96" style="stroke: #000000; stroke-width: 0.8"/>
      </g>
     </g>
    </g>
    <g id="xtick_13">
     <g id="line2d_13">
      <g>
       <use xlink:href="#m91ad726e62" x="130.4" y="228.96" style="stroke: #000000; stroke-width: 0.8"/>
      </g>
     </g>
    </g>
    <g id="xtick_14">
     <g id="line2d_14">
      <g>
       <use xlink:href="#m91ad726e62" x="140.256" y="228.96" style="stroke: #000000; stroke-width: 0.8"/>
      </g>
     </g>
    </g>
    <g id="xtick_15">
     <g id="line2d_15">
      <g>
       <use xlink:href="#m91ad726e62" x="150.112" y="228.96" style="stroke: #000000; stroke-width: 0.8"/>
      </g>
     </g>
    </g>
    <g id="xtick_16">
     <g id="line2d_16">
      <g>
       <use xlink:href="#m91ad726e62" x="159.968" y="228.96" style="stroke: #000000; stroke-width: 0.8"/>
      </g>
     </g>
    </g>
    <g id="xtick_17">
     <g id="line2d_17">
      <g>
       <use xlink:href="#m91ad726e62" x="169.824" y="228.96" style="stroke: #000000; stroke-width: 0.8"/>
      </g>
     </g>
    </g>
    <g id="xtick_18">
     <g id="line2d_18">
      <g>
       <use xlink:href="#m91ad726e62" x="179.68" y="228.96" style="stroke: #000000; stroke-width: 0.8"/>
      </g>
     </g>
    </g>
    <g id="xtick_19">
     <g id="line2d_19">
      <g>
       <use xlink:href="#m91ad726e62" x="189.536" y="228.96" style="stroke: #000000; stroke-width: 0.8"/>
      </g>
     </g>
    </g>
    <g id="xtick_20">
     <g id="line2d_20">
      <g>
       <use xlink:href="#m91ad726e62" x="199.392" y="228.96" style="stroke: #000000; stroke-width: 0.8"/>
      </g>
     </g>
    </g>
    <g id="xtick_21">
     <g id="line2d_21">
      <g>
       <use xlink:href="#m91ad726e62" x="209.248" y="228.96" style="stroke: #000000; stroke-width: 0.8"/>
      </g>
     </g>
    </g>
    <g id="xtick_22">
     <g id="line2d_22">
      <g>
       <use xlink:href="#m91ad726e62" x="219.104" y="228.96" style="stroke: #000000; stroke-width: 0.8"/>
      </g>
     </g>
    </g>
    <g id="xtick_23">
     <g id="line2d_23">
      <g>
       <use xlink:href="#m91ad726e62" x="228.96" y="228.96" style="stroke: #000000; stroke-width: 0.8"/>
      </g>
     </g>
    </g>
    <g id="xtick_24">
     <g id="line2d_24">
      <g>
       <use xlink:href="#m91ad726e62" x="238.816" y="228.96" style="stroke: #000000; stroke-width: 0.8"/>
      </g>
     </g>
    </g>
    <g id="xtick_25">
     <g id="line2d_25">
      <g>
       <use xlink:href="#m91ad726e62" x="248.672" y="228.96" style="stroke: #000000; stroke-width: 0.8"/>
      </g>
     </g>
    </g>
    <g id="xtick_26">
     <g id="line2d_26">
      <g>
       <use xlink:href="#m91ad726e62" x="258.528" y="228.96" style="stroke: #000000; stroke-width: 0.8"/>
      </g>
     </g>
    </g>
    <g id="xtick_27">
     <g id="line2d_27">
      <g>
       <use xlink:href="#m91ad726e62" x="268.384" y="228.96" style="stroke: #000000; stroke-width: 0.8"/>
      </g>
     </g>
    </g>
    <g id="xtick_28">
     <g id="line2d_28">
      <g>
       <use xlink:href="#m91ad726e62" x="278.24" y="228.96" style="stroke: #000000; stroke-width: 0.8"/>
      </g>
     </g>
    </g>
   </g>
   <g id="matplotlib.axis_2">
    <g id="ytick_1">
     <g id="line2d_29">
      <defs>
       <path id="m567710ce06" d="M 0 0 
L -3.5 0 
" style="stroke: #000000; stroke-width: 0.8"/>
      </defs>
      <g>
       <use xlink:href="#m567710ce06" x="130.4" y="445.792" style="stroke: #000000; stroke-width: 0.8"/>
      </g>
     </g>
    </g>
    <g id="ytick_2">
     <g id="line2d_30">
      <g>
       <use xlink:href="#m567710ce06" x="130.4" y="435.936" style="stroke: #000000; stroke-width: 0.8"/>
      </g>
     </g>
    </g>
    <g id="ytick_3">
     <g id="line2d_31">
      <g>
       <use xlink:href="#m567710ce06" x="130.4" y="426.08" style="stroke: #000000; stroke-width: 0.8"/>
      </g>
     </g>
    </g>
    <g id="ytick_4">
     <g id="line2d_32">
      <g>
       <use xlink:href="#m567710ce06" x="130.4" y="416.224" style="stroke: #000000; stroke-width: 0.8"/>
      </g>
     </g>
    </g>
    <g id="ytick_5">
     <g id="line2d_33">
      <g>
       <use xlink:href="#m567710ce06" x="130.4" y="406.368" style="stroke: #000000; stroke-width: 0.8"/>
      </g>
     </g>
    </g>
    <g id="ytick_6">
     <g id="line2d_34">
      <g>
       <use xlink:href="#m567710ce06" x="130.4" y="396.512" style="stroke: #000000; stroke-width: 0.8"/>
      </g>
     </g>
    </g>
    <g id="ytick_7">
     <g id="line2d_35">
      <g>
       <use xlink:href="#m567710ce06" x="130.4" y="386.656" style="stroke: #000000; stroke-width: 0.8"/>
      </g>
     </g>
    </g>
    <g id="ytick_8">
     <g id="line2d_36">
      <g>
       <use xlink:href="#m567710ce06" x="130.4" y="376.8" style="stroke: #000000; stroke-width: 0.8"/>
      </g>
     </g>
    </g>
    <g id="ytick_9">
     <g id="line2d_37">
      <g>
       <use xlink:href="#m567710ce06" x="130.4" y="366.944" style="stroke: #000000; stroke-width: 0.8"/>
      </g>
     </g>
    </g>
    <g id="ytick_10">
     <g id="line2d_38">
      <g>
       <use xlink:href="#m567710ce06" x="130.4" y="357.088" style="stroke: #000000; stroke-width: 0.8"/>
      </g>
     </g>
    </g>
    <g id="ytick_11">
     <g id="line2d_39">
      <g>
       <use xlink:href="#m567710ce06" x="130.4" y="347.232" style="stroke: #000000; stroke-width: 0.8"/>
      </g>
     </g>
    </g>
    <g id="ytick_12">
     <g id="line2d_40">
      <g>
       <use xlink:href="#m567710ce06" x="130.4" y="337.376" style="stroke: #000000; stroke-width: 0.8"/>
      </g>
     </g>
    </g>
    <g id="ytick_13">
     <g id="line2d_41">
      <g>
       <use xlink:href="#m567710ce06" x="130.4" y="327.52" style="stroke: #000000; stroke-width: 0.8"/>
      </g>
     </g>
    </g>
    <g id="ytick_14">
     <g id="line2d_42">
      <g>
       <use xlink:href="#m567710ce06" x="130.4" y="317.664" style="stroke: #000000; stroke-width: 0.8"/>
      </g>
     </g>
    </g>
    <g id="ytick_15">
     <g id="line2d_43">
      <g>
       <use xlink:href="#m567710ce06" x="130.4" y="307.808" style="stroke: #000000; stroke-width: 0.8"/>
      </g>
     </g>
    </g>
    <g id="ytick_16">
     <g id="line2d_44">
      <g>
       <use xlink:href="#m567710ce06" x="130.4" y="297.952" style="stroke: #000000; stroke-width: 0.8"/>
      </g>
     </g>
    </g>
    <g id="ytick_17">
     <g id="line2d_45">
      <g>
       <use xlink:href="#m567710ce06" x="130.4" y="288.096" style="stroke: #000000; stroke-width: 0.8"/>
      </g>
     </g>
    </g>
    <g id="ytick_18">
     <g id="line2d_46">
      <g>
       <use xlink:href="#m567710ce06" x="130.4" y="278.24" style="stroke: #000000; stroke-width: 0.8"/>
      </g>
     </g>
    </g>
    <g id="ytick_19">
     <g id="line2d_47">
      <g>
       <use xlink:href="#m567710ce06" x="130.4" y="268.384" style="stroke: #000000; stroke-width: 0.8"/>
      </g>
     </g>
    </g>
    <g id="ytick_20">
     <g id="line2d_48">
      <g>
       <use xlink:href="#m567710ce06" x="130.4" y="258.528" style="stroke: #000000; stroke-width: 0.8"/>
      </g>
     </g>
    </g>
    <g id="ytick_21">
     <g id="line2d_49">
      <g>
       <use xlink:href="#m567710ce06" x="130.4" y="248.672" style="stroke: #000000; stroke-width: 0.8"/>
      </g>
     </g>
    </g>
    <g id="ytick_22">
     <g id="line2d_50">
      <g>
       <use xlink:href="#m567710ce06" x="130.4" y="238.816" style="stroke: #000000; stroke-width: 0.8"/>
      </g>
     </g>
    </g>
    <g id="ytick_23">
     <g id="line2d_51">
      <g>
       <use xlink:href="#m567710ce06" x="130.4" y="228.96" style="stroke: #000000; stroke-width: 0.8"/>
      </g>
     </g>
    </g>
    <g id="ytick_24">
     <g id="line2d_52">
      <g>
       <use xlink:href="#m567710ce06" x="130.4" y="219.104" style="stroke: #000000; stroke-width: 0.8"/>
      </g>
     </g>
    </g>
    <g id="ytick_25">
     <g id="line2d_53">
      <g>
       <use xlink:href="#m567710ce06" x="130.4" y="209.248" style="stroke: #000000; stroke-width: 0.8"/>
      </g>
     </g>
    </g>
    <g id="ytick_26">
     <g id="line2d_54">
      <g>
       <use xlink:href="#m567710ce06" x="130.4" y="199.392" style="stroke: #000000; stroke-width: 0.8"/>
      </g>
     </g>
    </g>
    <g id="ytick_27">
     <g id="line2d_55">
      <g>
       <use xlink:href="#m567710ce06" x="130.4" y="189.536" style="stroke: #000000; stroke-width: 0.8"/>
      </g>
     </g>
    </g>
    <g id="ytick_28">
     <g id="line2d_56">
      <g>
       <use xlink:href="#m567710ce06" x="130.4" y="179.68" style="stroke: #000000; stroke-width: 0.8"/>
      </g>
     </g>
    </g>
    <g id="ytick_29">
     <g id="line2d_57">
      <g>
       <use xlink:href="#m567710ce06" x="130.4" y="169.824" style="stroke: #000000; stroke-width: 0.8"/>
      </g>
     </g>
    </g>
    <g id="ytick_30">
     <g id="line2d_58">
      <g>
       <use xlink:href="#m567710ce06" x="130.4" y="159.968" style="stroke: #000000; stroke-width: 0.8"/>
      </g>
     </g>
    </g>
    <g id="ytick_31">
     <g id="line2d_59">
      <g>
       <use xlink:href="#m567710ce06" x="130.4" y="150.112" style="stroke: #000000; stroke-width: 0.8"/>
      </g>
     </g>
    </g>
    <g id="ytick_32">
     <g id="line2d_60">
      <g>
       <use xlink:href="#m567710ce06" x="130.4" y="140.256" style="stroke: #000000; stroke-width: 0.8"/>
      </g>
     </g>
    </g>
    <g id="ytick_33">
     <g id="line2d_61">
      <g>
       <use xlink:href="#m567710ce06" x="130.4" y="130.4" style="stroke: #000000; stroke-width: 0.8"/>
      </g>
     </g>
    </g>
    <g id="ytick_34">
     <g id="line2d_62">
      <g>
       <use xlink:href="#m567710ce06" x="130.4" y="120.544" style="stroke: #000000; stroke-width: 0.8"/>
      </g>
     </g>
    </g>
    <g id="ytick_35">
     <g id="line2d_63">
      <g>
       <use xlink:href="#m567710ce06" x="130.4" y="110.688" style="stroke: #000000; stroke-width: 0.8"/>
      </g>
     </g>
    </g>
    <g id="ytick_36">
     <g id="line2d_64">
      <g>
       <use xlink:href="#m567710ce06" x="130.4" y="100.832" style="stroke: #000000; stroke-width: 0.8"/>
      </g>
     </g>
    </g>
    <g id="ytick_37">
     <g id="line2d_65">
      <g>
       <use xlink:href="#m567710ce06" x="130.4" y="90.976" style="stroke: #000000; stroke-width: 0.8"/>
      </g>
     </g>
    </g>
    <g id="ytick_38">
     <g id="line2d_66">
      <g>
       <use xlink:href="#m567710ce06" x="130.4" y="81.12" style="stroke: #000000; stroke-width: 0.8"/>
      </g>
     </g>
    </g>
    <g id="ytick_39">
     <g id="line2d_67">
      <g>
       <use xlink:href="#m567710ce06" x="130.4" y="71.264" style="stroke: #000000; stroke-width: 0.8"/>
      </g>
     </g>
    </g>
    <g id="ytick_40">
     <g id="line2d_68">
      <g>
       <use xlink:href="#m567710ce06" x="130.4" y="61.408" style="stroke: #000000; stroke-width: 0.8"/>
      </g>
     </g>
    </g>
    <g id="ytick_41">
     <g id="line2d_69">
      <g>
       <use xlink:href="#m567710ce06" x="130.4" y="51.552" style="stroke: #000000; stroke-width: 0.8"/>
      </g>
     </g>
    </g>
    <g id="ytick_42">
     <g id="line2d_70">
      <g>
       <use xlink:href="#m567710ce06" x="130.4" y="41.696" style="stroke: #000000; stroke-width: 0.8"/>
      </g>
     </g>
    </g>
    <g id="ytick_43">
     <g id="line2d_71">
      <g>
       <use xlink:href="#m567710ce06" x="130.4" y="31.84" style="stroke: #000000; stroke-width: 0.8"/>
      </g>
     </g>
    </g>
    <g id="ytick_44">
     <g id="line2d_72">
      <g>
       <use xlink:href="#m567710ce06" x="130.4" y="21.984" style="stroke: #000000; stroke-width: 0.8"/>
      </g>
     </g>
    </g>
    <g id="ytick_45">
     <g id="line2d_73">
      <g>
       <use xlink:href="#m567710ce06" x="130.4" y="12.128" style="stroke: #000000; stroke-width: 0.8"/>
      </g>
     </g>
    </g>
   </g>
   <g id="QuadContourSet_1">
    <path d="M 273.89175 458.92 
L 273.874354 458.874352 
L 273.764773 458.588028 
L 273.578378 458.099951 
L 273.576378 458.094735 
L 273.387585 457.601441 
L 273.282402 457.326018 
L 273.198839 457.108148 
L 273.010048 456.614855 
L 272.986426 456.553001 
L 272.820951 456.121562 
L 272.69045 455.780573 
L 272.631909 455.628268 
L 272.442712 455.134975 
L 272.394474 455.00893 
L 272.253316 454.641682 
L 272.098498 454.238015 
L 272.063974 454.148388 
L 271.874372 453.655095 
L 271.802523 453.46775 
L 271.684674 453.161802 
L 271.506547 452.698347 
L 271.495028 452.668509 
L 271.305021 452.175215 
L 271.210571 451.929462 
L 271.115016 451.681922 
L 270.925017 451.188629 
L 270.914595 451.16151 
L 270.73465 450.695335 
L 270.618619 450.394067 
L 270.544335 450.202042 
L 270.353932 449.708749 
L 270.322643 449.627502 
L 270.163253 449.215455 
L 270.026667 448.861567 
L 269.972624 448.722162 
L 269.781818 448.228869 
L 269.730691 448.096392 
L 269.590822 447.735576 
L 269.434715 447.331961 
L 269.399875 447.242282 
L 269.208665 446.748989 
L 269.138739 446.568179 
L 269.017349 446.255696 
L 268.842763 445.805252 
L 268.826081 445.762402 
L 268.634468 445.269109 
L 268.546787 445.042866 
L 268.442827 444.775816 
L 268.251231 444.282523 
L 268.250811 444.281437 
L 268.059217 443.789229 
L 267.954835 443.520454 
L 267.867248 443.295936 
L 267.675251 442.802643 
L 267.658859 442.760429 
L 267.482906 442.309349 
L 267.362883 442.000943 
L 267.290605 441.816056 
L 267.098207 441.322763 
L 267.066907 441.242325 
L 266.905526 440.829469 
L 266.770931 440.484334 
L 266.71289 440.336176 
L 266.520091 439.842883 
L 266.474955 439.727128 
L 266.327071 439.34959 
L 266.178979 438.97063 
L 266.134095 438.856296 
L 265.940896 438.363003 
L 265.883003 438.214838 
L 265.747533 437.86971 
L 265.587027 437.459831 
L 265.554212 437.376416 
L 265.360613 436.883123 
L 265.291051 436.705457 
L 265.166904 436.38983 
L 264.995075 435.951939 
L 264.973235 435.896537 
L 264.779236 435.403243 
L 264.699099 435.198986 
L 264.585176 434.90995 
L 264.403123 434.446954 
L 264.391155 434.416657 
L 264.196757 433.923363 
L 264.107147 433.695427 
L 264.002341 433.43007 
L 263.811171 432.944879 
L 263.807964 432.936777 
L 263.613167 432.443483 
L 263.515195 432.194781 
L 263.418393 431.95019 
L 263.223634 431.456897 
L 263.219219 431.445688 
L 263.02846 430.963604 
L 262.923243 430.69705 
L 262.833322 430.47031 
L 262.638168 429.977017 
L 262.627267 429.949395 
L 262.442628 429.483724 
L 262.331291 429.202235 
L 262.247122 428.99043 
L 262.051573 428.497137 
L 262.035315 428.456023 
L 261.855662 428.003844 
L 261.739339 427.710337 
L 261.659784 427.510551 
L 261.463842 427.017257 
L 261.443363 426.965573 
L 261.267556 426.523964 
L 261.147387 426.22136 
L 261.071301 426.030671 
L 260.874966 425.537377 
L 260.851411 425.478046 
L 260.678301 425.044084 
L 260.555435 424.735303 
L 260.481666 424.550791 
L 260.284939 424.057497 
L 260.259459 423.993446 
L 260.08789 423.564204 
L 259.963483 423.252169 
L 259.890869 423.070911 
L 259.693752 422.577618 
L 259.667508 422.511772 
L 259.496314 422.084324 
L 259.371532 421.77196 
L 259.298904 421.591031 
L 259.101398 421.097738 
L 259.075556 421.033029 
L 258.903567 420.604444 
L 258.77958 420.294678 
L 258.705764 420.111151 
L 258.507868 419.617858 
L 258.483604 419.557216 
L 258.309641 419.124565 
L 258.187628 418.820325 
L 258.111439 418.631271 
L 257.913157 418.137978 
L 257.891652 418.084337 
L 257.714528 417.644685 
L 257.595676 417.348901 
L 257.515922 417.151391 
L 257.317255 416.658098 
L 257.2997 416.614394 
L 257.118219 416.164805 
L 257.003724 415.880411 
L 256.919207 415.671512 
L 256.720155 415.178218 
L 256.707748 415.147389 
L 256.520709 414.684925 
L 256.411772 414.414855 
L 256.321284 414.191632 
L 256.12185 413.698338 
L 256.115796 413.683323 
L 255.921989 413.205045 
L 255.81982 412.952236 
L 255.722147 412.711752 
L 255.523844 412.22219 
L 255.522325 412.218458 
L 255.322051 411.725165 
L 255.227868 411.492556 
L 255.121788 411.231872 
L 254.931892 410.763952 
L 254.921543 410.738579 
L 254.720888 410.245285 
L 254.635916 410.035818 
L 254.520199 409.751992 
L 254.33994 409.308653 
L 254.319526 409.258699 
L 254.118493 408.765405 
L 254.043964 408.582024 
L 253.917373 408.272112 
L 253.747988 407.856294 
L 253.716268 407.778819 
L 253.514858 407.285526 
L 253.452012 407.131176 
L 253.313302 406.792232 
L 253.156036 406.406879 
L 253.11176 406.298939 
L 252.909976 405.805646 
L 252.86006 405.683277 
L 252.70798 405.312352 
L 252.564084 404.960408 
L 252.505995 404.819059 
L 252.30384 404.325766 
L 252.268108 404.238329 
L 252.101398 403.832472 
L 251.972132 403.516886 
L 251.898967 403.339179 
L 251.696442 402.845886 
L 251.676156 402.796336 
L 251.49355 402.352593 
L 251.38018 402.076314 
L 251.290667 401.859299 
L 251.087775 401.366006 
L 251.084204 401.3573 
L 250.884428 400.872713 
L 250.788228 400.638696 
L 250.681088 400.379419 
L 250.492252 399.921123 
L 250.477757 399.886126 
L 250.274025 399.392833 
L 250.196276 399.204034 
L 250.070224 398.89954 
L 249.9003 398.487873 
L 249.86643 398.406246 
L 249.662335 397.912953 
L 249.604324 397.772331 
L 249.458068 397.41966 
L 249.308348 397.057579 
L 249.253805 396.926366 
L 249.049351 396.433073 
L 249.012372 396.343591 
L 248.844612 395.93978 
L 248.716396 395.630243 
L 248.639876 395.446486 
L 248.435065 394.953193 
L 248.42042 394.917815 
L 248.22985 394.4599 
L 248.124444 394.205868 
L 248.024636 393.966607 
L 247.828468 393.494944 
L 247.819424 393.473313 
L 247.613776 392.98002 
L 247.532492 392.784457 
L 247.408079 392.486727 
L 247.236517 392.074928 
L 247.202381 391.993433 
L 246.996382 391.50014 
L 246.940541 391.366014 
L 246.790197 391.006847 
L 246.644565 390.657875 
L 246.58401 390.513554 
L 246.377663 390.02026 
L 246.348589 389.950542 
L 246.170985 389.526967 
L 246.052613 389.243788 
L 245.964303 389.033674 
L 245.757612 388.54038 
L 245.756637 388.538045 
L 245.550436 388.047087 
L 245.460661 387.832671 
L 245.343254 387.553794 
L 245.164685 387.128314 
L 245.136067 387.060501 
L 244.928545 386.567207 
L 244.868709 386.424528 
L 244.720858 386.073914 
L 244.572733 385.721545 
L 244.513164 385.580621 
L 244.305305 385.087327 
L 244.276757 385.019362 
L 244.097108 384.594034 
L 243.980781 384.317747 
L 243.888903 384.100741 
L 243.684805 383.617146 
L 243.680689 383.607447 
L 243.472 383.114154 
L 243.388829 382.916926 
L 243.263278 382.620861 
L 243.092853 382.217686 
L 243.054545 382.127568 
L 242.845528 381.634274 
L 242.796877 381.519084 
L 242.636283 381.140981 
L 242.500901 380.8212 
L 242.427027 380.647688 
L 242.217686 380.154394 
L 242.204925 380.124226 
L 242.007915 379.661101 
L 241.908949 379.427692 
L 241.79813 379.167808 
L 241.612973 378.732165 
L 241.58833 378.674515 
L 241.378167 378.181221 
L 241.316997 378.037167 
L 241.167848 377.687928 
L 241.021021 377.342982 
L 240.957513 377.194635 
L 240.747036 376.701341 
L 240.725045 376.649628 
L 240.536179 376.208048 
L 240.429069 375.95678 
L 240.325303 375.714755 
L 240.133093 375.264933 
L 240.11441 375.221461 
L 239.903116 374.728168 
L 239.837117 374.573562 
L 239.691695 374.234875 
L 239.541141 373.883043 
L 239.480254 373.741582 
L 239.268657 373.248288 
L 239.245165 373.193334 
L 239.056686 372.754995 
L 238.949189 372.504137 
L 238.844692 372.261702 
L 238.653213 371.815934 
L 238.632678 371.768408 
L 238.420271 371.275115 
L 238.357237 371.128217 
L 238.207721 370.781822 
L 238.061261 370.441327 
L 237.995147 370.288529 
L 237.782449 369.795235 
L 237.765285 369.755288 
L 237.569337 369.301942 
L 237.469309 369.069704 
L 237.356199 368.808649 
L 237.173333 368.385108 
L 237.143037 368.315355 
L 236.929537 367.822062 
L 236.877357 367.701071 
L 236.715831 367.328769 
L 236.581381 367.017771 
L 236.502098 366.835475 
L 236.288321 366.342182 
L 236.285405 366.335431 
L 236.07404 365.848889 
L 235.989429 365.65342 
L 235.859732 365.355596 
L 235.693453 364.972389 
L 235.645395 364.862302 
L 235.430827 364.369009 
L 235.397477 364.29206 
L 235.215937 363.875716 
L 235.101502 363.612307 
L 235.001018 363.382422 
L 234.805526 362.933532 
L 234.786069 362.889129 
L 234.570714 362.395836 
L 234.50955 362.255213 
L 234.355208 361.902543 
L 234.213574 361.577704 
L 234.139671 361.409249 
L 233.924061 360.915956 
L 233.917598 360.901112 
L 233.707964 360.422663 
L 233.621622 360.224861 
L 233.491833 359.929369 
L 233.325646 359.549579 
L 233.275669 359.436076 
L 233.059287 358.942783 
L 233.02967 358.875007 
L 232.842558 358.449489 
L 232.733694 358.200971 
L 232.625795 357.956196 
L 232.437718 357.527898 
L 232.408996 357.462903 
L 232.191847 356.96961 
L 232.141742 356.855348 
L 231.974479 356.476316 
L 231.845766 356.183509 
L 231.757076 355.983023 
L 231.54979 355.512627 
L 231.539635 355.48973 
L 231.321725 354.996436 
L 231.253814 354.8421 
L 231.103712 354.503143 
L 230.957838 354.172438 
L 230.88566 354.00985 
L 230.667534 353.516557 
L 230.661862 353.503677 
L 230.448908 353.023263 
L 230.365886 352.835224 
L 230.230241 352.52997 
L 230.06991 352.167719 
L 230.011535 352.036677 
L 229.792667 351.543383 
L 229.773934 351.500991 
L 229.573382 351.05009 
L 229.477958 350.83468 
L 229.354055 350.556797 
L 229.181982 350.169312 
L 229.134687 350.063504 
L 228.915087 349.57021 
L 228.886006 349.504616 
L 228.695136 349.076917 
L 228.59003 348.840426 
L 228.475143 348.583624 
L 228.294054 348.177172 
L 228.255107 348.09033 
L 228.034785 347.597037 
L 227.998078 347.514509 
L 227.814162 347.103744 
L 227.702102 346.852416 
L 227.593496 346.61045 
L 227.406126 346.191252 
L 227.372786 346.117157 
L 227.151754 345.623864 
L 227.11015 345.530621 
L 226.930454 345.130571 
L 226.814174 344.870601 
L 226.709109 344.637277 
L 226.518198 344.211502 
L 226.487719 344.143984 
L 226.265988 343.650691 
L 226.222222 343.552902 
L 226.044006 343.157397 
L 225.926246 342.894929 
L 225.821977 342.664104 
L 225.63027 342.237868 
L 225.599904 342.170811 
L 225.377488 341.677518 
L 225.334294 341.581299 
L 225.154818 341.184224 
L 225.038318 340.925343 
L 224.932102 340.690931 
L 224.742342 340.270293 
L 224.709339 340.197638 
L 224.486253 339.704344 
L 224.446366 339.615752 
L 224.262892 339.211051 
L 224.15039 338.961785 
L 224.039484 338.717758 
L 223.854414 338.308715 
L 223.816029 338.224464 
L 223.592289 337.731171 
L 223.558438 337.656199 
L 223.368234 337.237878 
L 223.262462 337.00419 
L 223.14413 336.744585 
L 222.966486 336.353068 
L 222.91998 336.251291 
L 222.695604 335.757998 
L 222.670511 335.702574 
L 222.470852 335.264705 
L 222.374535 335.052489 
L 222.246051 334.771411 
L 222.078559 334.403281 
L 222.021203 334.278118 
L 221.796211 333.784825 
L 221.782583 333.754804 
L 221.57076 333.291532 
L 221.486607 333.106608 
L 221.345262 332.798238 
L 221.190631 332.459277 
L 221.119715 332.304945 
L 220.894655 331.812807 
L 220.894122 331.811652 
L 220.667977 331.318358 
L 220.598679 331.166466 
L 220.44178 330.825065 
L 220.302703 330.520973 
L 220.215536 330.331772 
L 220.006727 329.87633 
L 219.989245 329.838478 
L 219.762526 329.345185 
L 219.710751 329.231978 
L 219.535631 328.851892 
L 219.414775 328.588281 
L 219.30869 328.358599 
L 219.118799 327.945421 
L 219.081704 327.865305 
L 218.854436 327.372012 
L 218.822823 327.30305 
L 218.626846 326.878719 
L 218.526847 326.661105 
L 218.399211 326.385425 
L 218.230871 326.019983 
L 218.171532 325.892132 
L 217.943742 325.398839 
L 217.934895 325.379581 
L 217.715462 324.905546 
L 217.638919 324.73934 
L 217.487137 324.412252 
L 217.342943 324.099906 
L 217.25877 323.918959 
L 217.046967 323.461276 
L 217.030361 323.425666 
L 216.801522 322.932372 
L 216.750991 322.822873 
L 216.572514 322.439079 
L 216.455015 322.185075 
L 216.343465 321.945786 
L 216.159039 321.548064 
L 216.114377 321.452492 
L 215.885079 320.959199 
L 215.863063 320.911582 
L 215.655395 320.465906 
L 215.567087 320.275363 
L 215.425674 319.972613 
L 215.271111 319.639913 
L 215.195915 319.479319 
L 214.975135 319.005228 
L 214.966122 318.986026 
L 214.735845 318.492733 
L 214.679159 318.370631 
L 214.505462 317.999439 
L 214.383183 317.736679 
L 214.275045 317.506146 
L 214.087207 317.103472 
L 214.044596 317.012853 
L 213.813935 316.51956 
L 213.791231 316.47073 
L 213.582904 316.026266 
L 213.495255 315.838208 
L 213.351842 315.532973 
L 213.199279 315.206409 
L 213.120753 315.03968 
L 212.903303 314.575327 
L 212.88964 314.546386 
L 212.658087 314.053093 
L 212.607327 313.944328 
L 212.426398 313.5598 
L 212.311351 313.313862 
L 212.194687 313.066507 
L 212.015375 312.684089 
L 211.962956 312.573213 
L 211.73111 312.07992 
L 211.719399 312.054855 
L 211.498814 311.586627 
L 211.423423 311.425639 
L 211.266502 311.093333 
L 211.127447 310.797091 
L 211.034175 310.60004 
L 210.831471 310.169203 
L 210.801838 310.106747 
L 210.569207 309.613453 
L 210.535495 309.541529 
L 210.336319 309.12016 
L 210.23952 308.914113 
L 210.103423 308.626867 
L 209.943544 308.287328 
L 209.870524 308.133574 
L 209.647568 307.661166 
L 209.637626 307.64028 
L 209.404274 307.146987 
L 209.351592 307.034913 
L 209.17084 306.653694 
L 209.055616 306.409129 
L 208.937411 306.1604 
L 208.75964 305.783934 
L 208.703991 305.667107 
L 208.470523 305.173814 
L 208.463664 305.159226 
L 208.236585 304.680521 
L 208.167688 304.534328 
L 208.002662 304.187227 
L 207.871712 303.909985 
L 207.768759 303.693934 
L 207.575736 303.286186 
L 207.534879 303.200641 
L 207.300838 302.707347 
L 207.27976 302.662621 
L 207.066464 302.214054 
L 206.983784 302.039002 
L 206.83212 301.720761 
L 206.687808 301.415885 
L 206.597813 301.227467 
L 206.391832 300.79326 
L 206.363547 300.734174 
L 206.129024 300.240881 
L 206.095856 300.170631 
L 205.894291 299.747588 
L 205.79988 299.548052 
L 205.659609 299.254294 
L 205.503904 298.925919 
L 205.424982 298.761001 
L 205.207928 298.304219 
L 205.190417 298.267708 
L 204.955513 297.774414 
L 204.911952 297.682279 
L 204.720515 297.281121 
L 204.615976 297.060472 
L 204.485589 296.787828 
L 204.32 296.439046 
L 204.250743 296.294535 
L 204.024024 295.817983 
L 204.015983 295.801241 
L 203.780812 295.307948 
L 203.728048 295.196444 
L 203.545658 294.814655 
L 203.432072 294.575102 
L 203.310603 294.321361 
L 203.136096 293.954064 
L 203.075656 293.828068 
L 202.840816 293.334775 
L 202.84012 293.333301 
L 202.605513 292.841481 
L 202.544144 292.711833 
L 202.370333 292.348188 
L 202.248168 292.090601 
L 202.135284 291.854895 
L 201.952192 291.469586 
L 201.900374 291.361602 
L 201.665519 290.868308 
L 201.656216 290.848611 
L 201.430308 290.375015 
L 201.36024 290.226941 
L 201.195254 289.881722 
L 201.064264 289.605409 
L 200.960368 289.388428 
L 200.768288 288.983994 
L 200.72566 288.895135 
L 200.49095 288.401842 
L 200.472312 288.362344 
L 200.256003 287.908549 
L 200.176336 287.740012 
L 200.021256 287.415255 
L 199.88036 287.117704 
L 199.78672 286.921962 
L 199.584384 286.495395 
L 199.552406 286.428669 
L 199.318019 285.935375 
L 199.288408 285.872515 
L 199.083541 285.442082 
L 198.992432 285.248982 
L 198.849312 284.948789 
L 198.696456 284.62534 
L 198.615345 284.455495 
L 198.40048 284.001559 
L 198.381654 283.962202 
L 198.14779 283.468909 
L 198.104505 283.376775 
L 197.914022 282.975616 
L 197.808529 282.751407 
L 197.68056 282.482322 
L 197.512553 282.125773 
L 197.447421 281.989029 
L 197.216577 281.499837 
L 197.21462 281.495736 
L 196.981507 281.002442 
L 196.920601 280.87233 
L 196.748731 280.509149 
L 196.624625 280.244375 
L 196.516331 280.015856 
L 196.328649 279.615967 
L 196.284324 279.522563 
L 196.052508 279.029269 
L 196.032673 278.986643 
L 195.820622 278.535976 
L 195.736697 278.355827 
L 195.589173 278.042683 
L 195.440721 277.724385 
L 195.35818 277.549389 
L 195.144745 277.092265 
L 195.127665 277.056096 
L 194.897095 276.562803 
L 194.848769 276.458335 
L 194.666838 276.06951 
L 194.552793 275.823206 
L 194.437109 275.576216 
L 194.256817 275.187189 
L 194.207933 275.082923 
L 193.97912 274.58963 
L 193.960841 274.549794 
L 193.75033 274.096336 
L 193.664865 273.910215 
L 193.52215 273.603043 
L 193.368889 273.269505 
L 193.294609 273.10975 
L 193.072913 272.627588 
L 193.067734 272.616456 
L 192.840784 272.123163 
L 192.776937 271.982791 
L 192.614478 271.62987 
L 192.480961 271.336447 
L 192.388908 271.136577 
L 192.184985 270.688595 
L 192.164107 270.643283 
L 191.939484 270.14999 
L 191.889009 270.037806 
L 191.715422 269.656697 
L 191.593033 269.384714 
L 191.492209 269.163403 
L 191.297057 268.729753 
L 191.26988 268.67011 
L 191.047885 268.176817 
L 191.001081 268.071498 
L 190.826491 267.683524 
L 190.705105 267.410323 
L 190.606073 267.19023 
L 190.409129 266.746848 
L 190.386675 266.696937 
L 190.167638 266.203644 
L 190.113153 266.079304 
L 189.949395 265.71035 
L 189.817177 265.408433 
L 189.732278 265.217057 
L 189.521201 264.734739 
L 189.516335 264.723764 
L 189.30062 264.23047 
L 189.225225 264.055632 
L 189.086084 263.737177 
L 188.929249 263.373097 
L 188.872846 263.243884 
L 188.660593 262.750591 
L 188.633273 262.686163 
L 188.448972 262.257297 
L 188.337297 261.993555 
L 188.238783 261.764004 
L 188.041321 261.296923 
L 188.030089 261.270711 
L 187.821898 260.777417 
L 187.745345 260.593197 
L 187.615139 260.284124 
L 187.449369 259.884386 
L 187.410033 259.790831 
L 187.205913 259.297538 
L 187.153393 259.168533 
L 187.003005 258.804244 
L 186.857417 258.445707 
L 186.801924 258.310951 
L 186.602168 257.817658 
L 186.561441 257.715349 
L 186.403576 257.324364 
L 186.265465 256.976307 
L 186.207005 256.831071 
L 186.011928 256.337778 
L 185.969489 256.228513 
L 185.818165 255.844484 
L 185.673514 255.470594 
L 185.626641 255.351191 
L 185.43658 254.857898 
L 185.377538 254.701708 
L 185.248218 254.364605 
L 185.081562 253.921656 
L 185.062336 253.871311 
L 184.877656 253.378018 
L 184.785586 253.127072 
L 184.695327 252.884725 
L 184.515358 252.391431 
L 184.48961 252.319355 
L 184.336843 251.898138 
L 184.193634 251.494687 
L 184.161252 251.404845 
L 183.987321 250.911552 
L 183.897658 250.651474 
L 183.816005 250.418258 
L 183.64722 249.924965 
L 183.601682 249.788705 
L 183.480486 249.431672 
L 183.317024 248.938378 
L 183.305706 248.903368 
L 183.155198 248.445085 
L 183.00973 247.990788 
L 182.997043 247.951792 
L 182.840671 247.458498 
L 182.713754 247.047305 
L 182.688003 246.965205 
L 182.537461 246.471912 
L 182.417778 246.06853 
L 182.390664 245.978619 
L 182.246158 245.485325 
L 182.121802 245.04795 
L 182.10564 244.992032 
L 181.967384 244.498739 
L 181.833448 244.005445 
L 181.825826 243.976435 
L 181.701793 243.512152 
L 181.574403 243.018859 
L 181.52985 242.840175 
L 181.450079 242.525566 
L 181.329468 242.032272 
L 181.233874 241.626257 
L 181.212973 241.538979 
L 181.099387 241.045686 
L 180.990344 240.552392 
L 180.937898 240.304818 
L 180.884944 240.059099 
L 180.78326 239.565806 
L 180.686197 239.072513 
L 180.641922 238.836246 
L 180.592914 238.579219 
L 180.503559 238.085926 
L 180.418906 237.592633 
L 180.345946 237.142461 
L 180.338833 237.099339 
L 180.262255 236.606046 
L 180.190463 236.112753 
L 180.123457 235.619459 
L 180.061237 235.126166 
L 180.04997 235.029393 
L 180.002977 234.632873 
L 179.949386 234.13958 
L 179.900667 233.646286 
L 179.856821 233.152993 
L 179.817846 232.6597 
L 179.783743 232.166406 
L 179.754512 231.673113 
L 179.753994 231.662632 
L 179.72972 231.17982 
L 179.709879 230.686527 
L 179.694999 230.193233 
L 179.685078 229.69994 
L 179.680118 229.206647 
L 179.680118 228.713353 
L 179.685078 228.22006 
L 179.694999 227.726767 
L 179.709879 227.233473 
L 179.72972 226.74018 
L 179.753994 226.257368 
L 179.754512 226.246887 
L 179.783743 225.753594 
L 179.817846 225.2603 
L 179.856821 224.767007 
L 179.900667 224.273714 
L 179.949386 223.78042 
L 180.002977 223.287127 
L 180.04997 222.890607 
L 180.061237 222.793834 
L 180.123457 222.300541 
L 180.190463 221.807247 
L 180.262255 221.313954 
L 180.338833 220.820661 
L 180.345946 220.777539 
L 180.418906 220.327367 
L 180.503559 219.834074 
L 180.592914 219.340781 
L 180.641922 219.083754 
L 180.686197 218.847487 
L 180.78326 218.354194 
L 180.884944 217.860901 
L 180.937898 217.615182 
L 180.990344 217.367608 
L 181.099387 216.874314 
L 181.212973 216.381021 
L 181.233874 216.293743 
L 181.329468 215.887728 
L 181.450079 215.394434 
L 181.52985 215.079825 
L 181.574403 214.901141 
L 181.701793 214.407848 
L 181.825826 213.943565 
L 181.833448 213.914555 
L 181.967384 213.421261 
L 182.10564 212.927968 
L 182.121802 212.87205 
L 182.246158 212.434675 
L 182.390664 211.941381 
L 182.417778 211.85147 
L 182.537461 211.448088 
L 182.688003 210.954795 
L 182.713754 210.872695 
L 182.840671 210.461502 
L 182.997043 209.968208 
L 183.00973 209.929212 
L 183.155198 209.474915 
L 183.305706 209.016632 
L 183.317024 208.981622 
L 183.480486 208.488328 
L 183.601682 208.131295 
L 183.64722 207.995035 
L 183.816005 207.501742 
L 183.897658 207.268526 
L 183.987321 207.008448 
L 184.161252 206.515155 
L 184.193634 206.425313 
L 184.336843 206.021862 
L 184.48961 205.600645 
L 184.515358 205.528569 
L 184.695327 205.035275 
L 184.785586 204.792928 
L 184.877656 204.541982 
L 185.062336 204.048689 
L 185.081562 203.998344 
L 185.248218 203.555395 
L 185.377538 203.218292 
L 185.43658 203.062102 
L 185.626641 202.568809 
L 185.673514 202.449406 
L 185.818165 202.075516 
L 185.969489 201.691487 
L 186.011928 201.582222 
L 186.207005 201.088929 
L 186.265465 200.943693 
L 186.403576 200.595636 
L 186.561441 200.204651 
L 186.602168 200.102342 
L 186.801924 199.609049 
L 186.857417 199.474293 
L 187.003005 199.115756 
L 187.153393 198.751467 
L 187.205913 198.622462 
L 187.410033 198.129169 
L 187.449369 198.035614 
L 187.615139 197.635876 
L 187.745345 197.326803 
L 187.821898 197.142583 
L 188.030089 196.649289 
L 188.041321 196.623077 
L 188.238783 196.155996 
L 188.337297 195.926445 
L 188.448972 195.662703 
L 188.633273 195.233837 
L 188.660593 195.169409 
L 188.872846 194.676116 
L 188.929249 194.546903 
L 189.086084 194.182823 
L 189.225225 193.864368 
L 189.30062 193.68953 
L 189.516335 193.196236 
L 189.521201 193.185261 
L 189.732278 192.702943 
L 189.817177 192.511567 
L 189.949395 192.20965 
L 190.113153 191.840696 
L 190.167638 191.716356 
L 190.386675 191.223063 
L 190.409129 191.173152 
L 190.606073 190.72977 
L 190.705105 190.509677 
L 190.826491 190.236476 
L 191.001081 189.848502 
L 191.047885 189.743183 
L 191.26988 189.24989 
L 191.297057 189.190247 
L 191.492209 188.756597 
L 191.593033 188.535286 
L 191.715422 188.263303 
L 191.889009 187.882194 
L 191.939484 187.77001 
L 192.164107 187.276717 
L 192.184985 187.231405 
L 192.388908 186.783423 
L 192.480961 186.583553 
L 192.614478 186.29013 
L 192.776937 185.937209 
L 192.840784 185.796837 
L 193.067734 185.303544 
L 193.072913 185.292412 
L 193.294609 184.81025 
L 193.368889 184.650495 
L 193.52215 184.316957 
L 193.664865 184.009785 
L 193.75033 183.823664 
L 193.960841 183.370206 
L 193.97912 183.33037 
L 194.207933 182.837077 
L 194.256817 182.732811 
L 194.437109 182.343784 
L 194.552793 182.096794 
L 194.666838 181.85049 
L 194.848769 181.461665 
L 194.897095 181.357197 
L 195.127665 180.863904 
L 195.144745 180.827735 
L 195.35818 180.370611 
L 195.440721 180.195615 
L 195.589173 179.877317 
L 195.736697 179.564173 
L 195.820622 179.384024 
L 196.032673 178.933357 
L 196.052508 178.890731 
L 196.284324 178.397437 
L 196.328649 178.304033 
L 196.516331 177.904144 
L 196.624625 177.675625 
L 196.748731 177.410851 
L 196.920601 177.04767 
L 196.981507 176.917558 
L 197.21462 176.424264 
L 197.216577 176.420163 
L 197.447421 175.930971 
L 197.512553 175.794227 
L 197.68056 175.437678 
L 197.808529 175.168593 
L 197.914022 174.944384 
L 198.104505 174.543225 
L 198.14779 174.451091 
L 198.381654 173.957798 
L 198.40048 173.918441 
L 198.615345 173.464505 
L 198.696456 173.29466 
L 198.849312 172.971211 
L 198.992432 172.671018 
L 199.083541 172.477918 
L 199.288408 172.047485 
L 199.318019 171.984625 
L 199.552406 171.491331 
L 199.584384 171.424605 
L 199.78672 170.998038 
L 199.88036 170.802296 
L 200.021256 170.504745 
L 200.176336 170.179988 
L 200.256003 170.011451 
L 200.472312 169.557656 
L 200.49095 169.518158 
L 200.72566 169.024865 
L 200.768288 168.936006 
L 200.960368 168.531572 
L 201.064264 168.314591 
L 201.195254 168.038278 
L 201.36024 167.693059 
L 201.430308 167.544985 
L 201.656216 167.071389 
L 201.665519 167.051692 
L 201.900374 166.558398 
L 201.952192 166.450414 
L 202.135284 166.065105 
L 202.248168 165.829399 
L 202.370333 165.571812 
L 202.544144 165.208167 
L 202.605513 165.078519 
L 202.84012 164.586699 
L 202.840816 164.585225 
L 203.075656 164.091932 
L 203.136096 163.965936 
L 203.310603 163.598639 
L 203.432072 163.344898 
L 203.545658 163.105345 
L 203.728048 162.723556 
L 203.780812 162.612052 
L 204.015983 162.118759 
L 204.024024 162.102017 
L 204.250743 161.625465 
L 204.32 161.480954 
L 204.485589 161.132172 
L 204.615976 160.859528 
L 204.720515 160.638879 
L 204.911952 160.237721 
L 204.955513 160.145586 
L 205.190417 159.652292 
L 205.207928 159.615781 
L 205.424982 159.158999 
L 205.503904 158.994081 
L 205.659609 158.665706 
L 205.79988 158.371948 
L 205.894291 158.172412 
L 206.095856 157.749369 
L 206.129024 157.679119 
L 206.363547 157.185826 
L 206.391832 157.12674 
L 206.597813 156.692533 
L 206.687808 156.504115 
L 206.83212 156.199239 
L 206.983784 155.880998 
L 207.066464 155.705946 
L 207.27976 155.257379 
L 207.300838 155.212653 
L 207.534879 154.719359 
L 207.575736 154.633814 
L 207.768759 154.226066 
L 207.871712 154.010015 
L 208.002662 153.732773 
L 208.167688 153.385672 
L 208.236585 153.239479 
L 208.463664 152.760774 
L 208.470523 152.746186 
L 208.703991 152.252893 
L 208.75964 152.136066 
L 208.937411 151.7596 
L 209.055616 151.510871 
L 209.17084 151.266306 
L 209.351592 150.885087 
L 209.404274 150.773013 
L 209.637626 150.27972 
L 209.647568 150.258834 
L 209.870524 149.786426 
L 209.943544 149.632672 
L 210.103423 149.293133 
L 210.23952 149.005887 
L 210.336319 148.79984 
L 210.535495 148.378471 
L 210.569207 148.306547 
L 210.801838 147.813253 
L 210.831471 147.750797 
L 211.034175 147.31996 
L 211.127447 147.122909 
L 211.266502 146.826667 
L 211.423423 146.494361 
L 211.498814 146.333373 
L 211.719399 145.865145 
L 211.73111 145.84008 
L 211.962956 145.346787 
L 212.015375 145.235911 
L 212.194687 144.853493 
L 212.311351 144.606138 
L 212.426398 144.3602 
L 212.607327 143.975672 
L 212.658087 143.866907 
L 212.88964 143.373614 
L 212.903303 143.344673 
L 213.120753 142.88032 
L 213.199279 142.713591 
L 213.351842 142.387027 
L 213.495255 142.081792 
L 213.582904 141.893734 
L 213.791231 141.44927 
L 213.813935 141.40044 
L 214.044596 140.907147 
L 214.087207 140.816528 
L 214.275045 140.413854 
L 214.383183 140.183321 
L 214.505462 139.920561 
L 214.679159 139.549369 
L 214.735845 139.427267 
L 214.966122 138.933974 
L 214.975135 138.914772 
L 215.195915 138.440681 
L 215.271111 138.280087 
L 215.425674 137.947387 
L 215.567087 137.644637 
L 215.655395 137.454094 
L 215.863063 137.008418 
L 215.885079 136.960801 
L 216.114377 136.467508 
L 216.159039 136.371936 
L 216.343465 135.974214 
L 216.455015 135.734925 
L 216.572514 135.480921 
L 216.750991 135.097127 
L 216.801522 134.987628 
L 217.030361 134.494334 
L 217.046967 134.458724 
L 217.25877 134.001041 
L 217.342943 133.820094 
L 217.487137 133.507748 
L 217.638919 133.18066 
L 217.715462 133.014454 
L 217.934895 132.540419 
L 217.943742 132.521161 
L 218.171532 132.027868 
L 218.230871 131.900017 
L 218.399211 131.534575 
L 218.526847 131.258895 
L 218.626846 131.041281 
L 218.822823 130.61695 
L 218.854436 130.547988 
L 219.081704 130.054695 
L 219.118799 129.974579 
L 219.30869 129.561401 
L 219.414775 129.331719 
L 219.535631 129.068108 
L 219.710751 128.688022 
L 219.762526 128.574815 
L 219.989245 128.081522 
L 220.006727 128.04367 
L 220.215536 127.588228 
L 220.302703 127.399027 
L 220.44178 127.094935 
L 220.598679 126.753534 
L 220.667977 126.601642 
L 220.894122 126.108348 
L 220.894655 126.107193 
L 221.119715 125.615055 
L 221.190631 125.460723 
L 221.345262 125.121762 
L 221.486607 124.813392 
L 221.57076 124.628468 
L 221.782583 124.165196 
L 221.796211 124.135175 
L 222.021203 123.641882 
L 222.078559 123.516719 
L 222.246051 123.148589 
L 222.374535 122.867511 
L 222.470852 122.655295 
L 222.670511 122.217426 
L 222.695604 122.162002 
L 222.91998 121.668709 
L 222.966486 121.566932 
L 223.14413 121.175415 
L 223.262462 120.91581 
L 223.368234 120.682122 
L 223.558438 120.263801 
L 223.592289 120.188829 
L 223.816029 119.695536 
L 223.854414 119.611285 
L 224.039484 119.202242 
L 224.15039 118.958215 
L 224.262892 118.708949 
L 224.446366 118.304248 
L 224.486253 118.215656 
L 224.709339 117.722362 
L 224.742342 117.649707 
L 224.932102 117.229069 
L 225.038318 116.994657 
L 225.154818 116.735776 
L 225.334294 116.338701 
L 225.377488 116.242482 
L 225.599904 115.749189 
L 225.63027 115.682132 
L 225.821977 115.255896 
L 225.926246 115.025071 
L 226.044006 114.762603 
L 226.222222 114.367098 
L 226.265988 114.269309 
L 226.487719 113.776016 
L 226.518198 113.708498 
L 226.709109 113.282723 
L 226.814174 113.049399 
L 226.930454 112.789429 
L 227.11015 112.389379 
L 227.151754 112.296136 
L 227.372786 111.802843 
L 227.406126 111.728748 
L 227.593496 111.30955 
L 227.702102 111.067584 
L 227.814162 110.816256 
L 227.998078 110.405491 
L 228.034785 110.322963 
L 228.255107 109.82967 
L 228.294054 109.742828 
L 228.475143 109.336376 
L 228.59003 109.079574 
L 228.695136 108.843083 
L 228.886006 108.415384 
L 228.915087 108.34979 
L 229.134687 107.856496 
L 229.181982 107.750688 
L 229.354055 107.363203 
L 229.477958 107.08532 
L 229.573382 106.86991 
L 229.773934 106.419009 
L 229.792667 106.376617 
L 230.011535 105.883323 
L 230.06991 105.752281 
L 230.230241 105.39003 
L 230.365886 105.084776 
L 230.448908 104.896737 
L 230.661862 104.416323 
L 230.667534 104.403443 
L 230.88566 103.91015 
L 230.957838 103.747562 
L 231.103712 103.416857 
L 231.253814 103.0779 
L 231.321725 102.923564 
L 231.539635 102.43027 
L 231.54979 102.407373 
L 231.757076 101.936977 
L 231.845766 101.736491 
L 231.974479 101.443684 
L 232.141742 101.064652 
L 232.191847 100.95039 
L 232.408996 100.457097 
L 232.437718 100.392102 
L 232.625795 99.963804 
L 232.733694 99.719029 
L 232.842558 99.470511 
L 233.02967 99.044993 
L 233.059287 98.977217 
L 233.275669 98.483924 
L 233.325646 98.370421 
L 233.491833 97.990631 
L 233.621622 97.695139 
L 233.707964 97.497337 
L 233.917598 97.018888 
L 233.924061 97.004044 
L 234.139671 96.510751 
L 234.213574 96.342296 
L 234.355208 96.017457 
L 234.50955 95.664787 
L 234.570714 95.524164 
L 234.786069 95.030871 
L 234.805526 94.986468 
L 235.001018 94.537578 
L 235.101502 94.307693 
L 235.215937 94.044284 
L 235.397477 93.62794 
L 235.430827 93.550991 
L 235.645395 93.057698 
L 235.693453 92.947611 
L 235.859732 92.564404 
L 235.989429 92.26658 
L 236.07404 92.071111 
L 236.285405 91.584569 
L 236.288321 91.577818 
L 236.502098 91.084525 
L 236.581381 90.902229 
L 236.715831 90.591231 
L 236.877357 90.218929 
L 236.929537 90.097938 
L 237.143037 89.604645 
L 237.173333 89.534892 
L 237.356199 89.111351 
L 237.469309 88.850296 
L 237.569337 88.618058 
L 237.765285 88.164712 
L 237.782449 88.124765 
L 237.995147 87.631471 
L 238.061261 87.478673 
L 238.207721 87.138178 
L 238.357237 86.791783 
L 238.420271 86.644885 
L 238.632678 86.151592 
L 238.653213 86.104066 
L 238.844692 85.658298 
L 238.949189 85.415863 
L 239.056686 85.165005 
L 239.245165 84.726666 
L 239.268657 84.671712 
L 239.480254 84.178418 
L 239.541141 84.036957 
L 239.691695 83.685125 
L 239.837117 83.346438 
L 239.903116 83.191832 
L 240.11441 82.698539 
L 240.133093 82.655067 
L 240.325303 82.205245 
L 240.429069 81.96322 
L 240.536179 81.711952 
L 240.725045 81.270372 
L 240.747036 81.218659 
L 240.957513 80.725365 
L 241.021021 80.577018 
L 241.167848 80.232072 
L 241.316997 79.882833 
L 241.378167 79.738779 
L 241.58833 79.245485 
L 241.612973 79.187835 
L 241.79813 78.752192 
L 241.908949 78.492308 
L 242.007915 78.258899 
L 242.204925 77.795774 
L 242.217686 77.765606 
L 242.427027 77.272312 
L 242.500901 77.0988 
L 242.636283 76.779019 
L 242.796877 76.400916 
L 242.845528 76.285726 
L 243.054545 75.792432 
L 243.092853 75.702314 
L 243.263278 75.299139 
L 243.388829 75.003074 
L 243.472 74.805846 
L 243.680689 74.312553 
L 243.684805 74.302854 
L 243.888903 73.819259 
L 243.980781 73.602253 
L 244.097108 73.325966 
L 244.276757 72.900638 
L 244.305305 72.832673 
L 244.513164 72.339379 
L 244.572733 72.198455 
L 244.720858 71.846086 
L 244.868709 71.495472 
L 244.928545 71.352793 
L 245.136067 70.859499 
L 245.164685 70.791686 
L 245.343254 70.366206 
L 245.460661 70.087329 
L 245.550436 69.872913 
L 245.756637 69.381955 
L 245.757612 69.37962 
L 245.964303 68.886326 
L 246.052613 68.676212 
L 246.170985 68.393033 
L 246.348589 67.969458 
L 246.377663 67.89974 
L 246.58401 67.406446 
L 246.644565 67.262125 
L 246.790197 66.913153 
L 246.940541 66.553986 
L 246.996382 66.41986 
L 247.202381 65.926567 
L 247.236517 65.845072 
L 247.408079 65.433273 
L 247.532492 65.135543 
L 247.613776 64.93998 
L 247.819424 64.446687 
L 247.828468 64.425056 
L 248.024636 63.953393 
L 248.124444 63.714132 
L 248.22985 63.4601 
L 248.42042 63.002185 
L 248.435065 62.966807 
L 248.639876 62.473514 
L 248.716396 62.289757 
L 248.844612 61.98022 
L 249.012372 61.576409 
L 249.049351 61.486927 
L 249.253805 60.993634 
L 249.308348 60.862421 
L 249.458068 60.50034 
L 249.604324 60.147669 
L 249.662335 60.007047 
L 249.86643 59.513754 
L 249.9003 59.432127 
L 250.070224 59.02046 
L 250.196276 58.715966 
L 250.274025 58.527167 
L 250.477757 58.033874 
L 250.492252 57.998877 
L 250.681088 57.540581 
L 250.788228 57.281304 
L 250.884428 57.047287 
L 251.084204 56.5627 
L 251.087775 56.553994 
L 251.290667 56.060701 
L 251.38018 55.843686 
L 251.49355 55.567407 
L 251.676156 55.123664 
L 251.696442 55.074114 
L 251.898967 54.580821 
L 251.972132 54.403114 
L 252.101398 54.087528 
L 252.268108 53.681671 
L 252.30384 53.594234 
L 252.505995 53.100941 
L 252.564084 52.959592 
L 252.70798 52.607648 
L 252.86006 52.236723 
L 252.909976 52.114354 
L 253.11176 51.621061 
L 253.156036 51.513121 
L 253.313302 51.127768 
L 253.452012 50.788824 
L 253.514858 50.634474 
L 253.716268 50.141181 
L 253.747988 50.063706 
L 253.917373 49.647888 
L 254.043964 49.337976 
L 254.118493 49.154595 
L 254.319526 48.661301 
L 254.33994 48.611347 
L 254.520199 48.168008 
L 254.635916 47.884182 
L 254.720888 47.674715 
L 254.921543 47.181421 
L 254.931892 47.156048 
L 255.121788 46.688128 
L 255.227868 46.427444 
L 255.322051 46.194835 
L 255.522325 45.701542 
L 255.523844 45.69781 
L 255.722147 45.208248 
L 255.81982 44.967764 
L 255.921989 44.714955 
L 256.115796 44.236677 
L 256.12185 44.221662 
L 256.321284 43.728368 
L 256.411772 43.505145 
L 256.520709 43.235075 
L 256.707748 42.772611 
L 256.720155 42.741782 
L 256.919207 42.248488 
L 257.003724 42.039589 
L 257.118219 41.755195 
L 257.2997 41.305606 
L 257.317255 41.261902 
L 257.515922 40.768609 
L 257.595676 40.571099 
L 257.714528 40.275315 
L 257.891652 39.835663 
L 257.913157 39.782022 
L 258.111439 39.288729 
L 258.187628 39.099675 
L 258.309641 38.795435 
L 258.483604 38.362784 
L 258.507868 38.302142 
L 258.705764 37.808849 
L 258.77958 37.625322 
L 258.903567 37.315556 
L 259.075556 36.886971 
L 259.101398 36.822262 
L 259.298904 36.328969 
L 259.371532 36.14804 
L 259.496314 35.835676 
L 259.667508 35.408228 
L 259.693752 35.342382 
L 259.890869 34.849089 
L 259.963483 34.667831 
L 260.08789 34.355796 
L 260.259459 33.926554 
L 260.284939 33.862503 
L 260.481666 33.369209 
L 260.555435 33.184697 
L 260.678301 32.875916 
L 260.851411 32.441954 
L 260.874966 32.382623 
L 261.071301 31.889329 
L 261.147387 31.69864 
L 261.267556 31.396036 
L 261.443363 30.954427 
L 261.463842 30.902743 
L 261.659784 30.409449 
L 261.739339 30.209663 
L 261.855662 29.916156 
L 262.035315 29.463977 
L 262.051573 29.422863 
L 262.247122 28.92957 
L 262.331291 28.717765 
L 262.442628 28.436276 
L 262.627267 27.970605 
L 262.638168 27.942983 
L 262.833322 27.44969 
L 262.923243 27.22295 
L 263.02846 26.956396 
L 263.219219 26.474312 
L 263.223634 26.463103 
L 263.418393 25.96981 
L 263.515195 25.725219 
L 263.613167 25.476517 
L 263.807964 24.983223 
L 263.811171 24.975121 
L 264.002341 24.48993 
L 264.107147 24.224573 
L 264.196757 23.996637 
L 264.391155 23.503343 
L 264.403123 23.473046 
L 264.585176 23.01005 
L 264.699099 22.721014 
L 264.779236 22.516757 
L 264.973235 22.023463 
L 264.995075 21.968061 
L 265.166904 21.53017 
L 265.291051 21.214543 
L 265.360613 21.036877 
L 265.554212 20.543584 
L 265.587027 20.460169 
L 265.747533 20.05029 
L 265.883003 19.705162 
L 265.940896 19.556997 
L 266.134095 19.063704 
L 266.178979 18.94937 
L 266.327071 18.57041 
L 266.474955 18.192872 
L 266.520091 18.077117 
L 266.71289 17.583824 
L 266.770931 17.435666 
L 266.905526 17.090531 
L 267.066907 16.677675 
L 267.098207 16.597237 
L 267.290605 16.103944 
L 267.362883 15.919057 
L 267.482906 15.610651 
L 267.658859 15.159571 
L 267.675251 15.117357 
L 267.867248 14.624064 
L 267.954835 14.399546 
L 268.059217 14.130771 
L 268.250811 13.638563 
L 268.251231 13.637477 
L 268.442827 13.144184 
L 268.546787 12.877134 
L 268.634468 12.650891 
L 268.826081 12.157598 
L 268.842763 12.114748 
L 269.017349 11.664304 
L 269.138739 11.351821 
L 269.208665 11.171011 
L 269.399875 10.677718 
L 269.434715 10.588039 
L 269.590822 10.184424 
L 269.730691 9.823608 
L 269.781818 9.691131 
L 269.972624 9.197838 
L 270.026667 9.058433 
L 270.163253 8.704545 
L 270.322643 8.292498 
L 270.353932 8.211251 
L 270.544335 7.717958 
L 270.618619 7.525933 
L 270.73465 7.224665 
L 270.914595 6.75849 
L 270.925017 6.731371 
L 271.115016 6.238078 
L 271.210571 5.990538 
L 271.305021 5.744785 
L 271.495028 5.251491 
L 271.506547 5.221653 
L 271.684674 4.758198 
L 271.802523 4.45225 
L 271.874372 4.264905 
L 272.063974 3.771612 
L 272.098498 3.681985 
L 272.253316 3.278318 
L 272.394474 2.91107 
L 272.442712 2.785025 
L 272.631909 2.291732 
L 272.69045 2.139427 
L 272.820951 1.798438 
L 272.986426 1.366999 
L 273.010048 1.305145 
L 273.198839 0.811852 
L 273.282402 0.593982 
L 273.387585 0.318559 
L 273.576378 -0.174735 
L 273.578378 -0.179951 
L 273.764773 -0.668028 
L 273.874354 -0.954352 
L 273.89175 -1 
M 99.248529 259.319581 
L 99.118361 259.297538 
L 98.952553 259.268998 
L 98.656577 259.212481 
L 98.360601 259.150338 
L 98.064625 259.082517 
L 97.768649 259.008965 
L 97.472673 258.92963 
L 97.176697 258.844459 
L 97.045984 258.804244 
L 96.880721 258.752553 
L 96.584745 258.653937 
L 96.288769 258.549228 
L 95.992793 258.438373 
L 95.696817 258.321319 
L 95.671931 258.310951 
L 95.400841 258.196097 
L 95.104865 258.064287 
L 94.808889 257.92601 
L 94.587412 257.817658 
L 94.512913 257.780582 
L 94.216937 257.626598 
L 93.920961 257.465869 
L 93.670962 257.324364 
L 93.624985 257.297884 
L 93.329009 257.120442 
L 93.033033 256.935968 
L 92.870959 256.831071 
L 92.737057 256.74286 
L 92.441081 256.540608 
L 92.154637 256.337778 
L 92.145105 256.330905 
L 91.849129 256.109996 
L 91.553153 255.881508 
L 91.506745 255.844484 
L 91.257177 255.641698 
L 90.961201 255.393365 
L 90.912485 255.351191 
L 90.665225 255.133099 
L 90.369249 254.863931 
L 90.36281 254.857898 
L 90.073273 254.581381 
L 89.852828 254.364605 
L 89.777297 254.288875 
L 89.481321 253.983507 
L 89.37558 253.871311 
L 89.185345 253.665428 
L 88.926969 253.378018 
L 88.889369 253.33534 
L 88.593393 252.990229 
L 88.505266 252.884725 
L 88.297417 252.63071 
L 88.106629 252.391431 
L 88.001441 252.256703 
L 87.728517 251.898138 
L 87.705465 251.867195 
L 87.409489 251.459858 
L 87.370484 251.404845 
L 87.113514 251.034363 
L 87.030357 250.911552 
L 86.817538 250.590103 
L 86.706427 250.418258 
L 86.521562 250.125695 
L 86.397643 249.924965 
L 86.225586 249.639623 
L 86.103033 249.431672 
L 85.92961 249.130224 
L 85.8217 248.938378 
L 85.633634 248.595668 
L 85.552813 248.445085 
L 85.337658 248.033938 
L 85.295599 247.951792 
L 85.049511 247.458498 
L 85.041682 247.442381 
L 84.814832 246.965205 
L 84.745706 246.815759 
L 84.589995 246.471912 
L 84.44973 246.153322 
L 84.374403 245.978619 
L 84.167789 245.485325 
L 84.153754 245.450802 
L 83.971053 244.992032 
L 83.857778 244.698706 
L 83.782108 244.498739 
L 83.601274 244.005445 
L 83.561802 243.89418 
L 83.428961 243.512152 
L 83.265826 243.026823 
L 83.263201 243.018859 
L 83.106238 242.525566 
L 82.96985 242.081057 
L 82.95517 242.032272 
L 82.812233 241.538979 
L 82.674794 241.045686 
L 82.673874 241.042247 
L 82.545349 240.552392 
L 82.421314 240.059099 
L 82.377898 239.878582 
L 82.304088 239.565806 
L 82.192969 239.072513 
L 82.087143 238.579219 
L 82.081922 238.553603 
L 81.988378 238.085926 
L 81.894903 237.592633 
L 81.806622 237.099339 
L 81.785946 236.976588 
L 81.724678 236.606046 
L 81.648212 236.112753 
L 81.576844 235.619459 
L 81.510573 235.126166 
L 81.48997 234.960023 
L 81.450136 234.632873 
L 81.395077 234.13958 
L 81.345024 233.646286 
L 81.299976 233.152993 
L 81.259933 232.6597 
L 81.224896 232.166406 
L 81.194864 231.673113 
L 81.193994 231.655973 
L 81.17027 231.17982 
L 81.150607 230.686527 
L 81.13586 230.193233 
L 81.126028 229.69994 
L 81.121113 229.206647 
L 81.121113 228.713353 
L 81.126028 228.22006 
L 81.13586 227.726767 
L 81.150607 227.233473 
L 81.17027 226.74018 
L 81.193994 226.264027 
L 81.194864 226.246887 
L 81.224896 225.753594 
L 81.259933 225.2603 
L 81.299976 224.767007 
L 81.345024 224.273714 
L 81.395077 223.78042 
L 81.450136 223.287127 
L 81.48997 222.959977 
L 81.510573 222.793834 
L 81.576844 222.300541 
L 81.648212 221.807247 
L 81.724678 221.313954 
L 81.785946 220.943412 
L 81.806622 220.820661 
L 81.894903 220.327367 
L 81.988378 219.834074 
L 82.081922 219.366397 
L 82.087143 219.340781 
L 82.192969 218.847487 
L 82.304088 218.354194 
L 82.377898 218.041418 
L 82.421314 217.860901 
L 82.545349 217.367608 
L 82.673874 216.877753 
L 82.674794 216.874314 
L 82.812233 216.381021 
L 82.95517 215.887728 
L 82.96985 215.838943 
L 83.106238 215.394434 
L 83.263201 214.901141 
L 83.265826 214.893177 
L 83.428961 214.407848 
L 83.561802 214.02582 
L 83.601274 213.914555 
L 83.782108 213.421261 
L 83.857778 213.221294 
L 83.971053 212.927968 
L 84.153754 212.469198 
L 84.167789 212.434675 
L 84.374403 211.941381 
L 84.44973 211.766678 
L 84.589995 211.448088 
L 84.745706 211.104241 
L 84.814832 210.954795 
L 85.041682 210.477619 
L 85.049511 210.461502 
L 85.295599 209.968208 
L 85.337658 209.886062 
L 85.552813 209.474915 
L 85.633634 209.324332 
L 85.8217 208.981622 
L 85.92961 208.789776 
L 86.103033 208.488328 
L 86.225586 208.280377 
L 86.397643 207.995035 
L 86.521562 207.794305 
L 86.706427 207.501742 
L 86.817538 207.329897 
L 87.030357 207.008448 
L 87.113514 206.885637 
L 87.370484 206.515155 
L 87.409489 206.460142 
L 87.705465 206.052805 
L 87.728517 206.021862 
L 88.001441 205.663297 
L 88.106629 205.528569 
L 88.297417 205.28929 
L 88.505266 205.035275 
L 88.593393 204.929771 
L 88.889369 204.58466 
L 88.926969 204.541982 
L 89.185345 204.254572 
L 89.37558 204.048689 
L 89.481321 203.936493 
L 89.777297 203.631125 
L 89.852828 203.555395 
L 90.073273 203.338619 
L 90.36281 203.062102 
L 90.369249 203.056069 
L 90.665225 202.786901 
L 90.912485 202.568809 
L 90.961201 202.526635 
L 91.257177 202.278302 
L 91.506745 202.075516 
L 91.553153 202.038492 
L 91.849129 201.810004 
L 92.145105 201.589095 
L 92.154637 201.582222 
L 92.441081 201.379392 
L 92.737057 201.17714 
L 92.870959 201.088929 
L 93.033033 200.984032 
L 93.329009 200.799558 
L 93.624985 200.622116 
L 93.670962 200.595636 
L 93.920961 200.454131 
L 94.216937 200.293402 
L 94.512913 200.139418 
L 94.587412 200.102342 
L 94.808889 199.99399 
L 95.104865 199.855713 
L 95.400841 199.723903 
L 95.671931 199.609049 
L 95.696817 199.598681 
L 95.992793 199.481627 
L 96.288769 199.370772 
L 96.584745 199.266063 
L 96.880721 199.167447 
L 97.045984 199.115756 
L 97.176697 199.075541 
L 97.472673 198.99037 
L 97.768649 198.911035 
L 98.064625 198.837483 
L 98.360601 198.769662 
L 98.656577 198.707519 
L 98.952553 198.651002 
L 99.118361 198.622462 
L 99.248529 198.600419 
L 99.544505 198.555729 
L 99.84048 198.516419 
L 100.136456 198.482437 
L 100.432432 198.453732 
L 100.728408 198.430253 
L 101.024384 198.411947 
L 101.32036 198.398764 
L 101.616336 198.390651 
L 101.912312 198.387557 
L 102.208288 198.389431 
L 102.504264 198.39622 
L 102.80024 198.407874 
L 103.096216 198.424339 
L 103.392192 198.445566 
L 103.688168 198.471502 
L 103.984144 198.502096 
L 104.28012 198.537296 
L 104.576096 198.57705 
L 104.872072 198.621307 
L 104.879091 198.622462 
L 105.168048 198.670795 
L 105.464024 198.724774 
L 105.76 198.783172 
L 106.055976 198.845937 
L 106.351952 198.913016 
L 106.647928 198.984357 
L 106.943904 199.059908 
L 107.151282 199.115756 
L 107.23988 199.140013 
L 107.535856 199.225223 
L 107.831832 199.314551 
L 108.127808 199.407947 
L 108.423784 199.505355 
L 108.71976 199.606723 
L 108.7263 199.609049 
L 109.015736 199.713742 
L 109.311712 199.824719 
L 109.607688 199.93956 
L 109.903664 200.05821 
L 110.010374 200.102342 
L 110.19964 200.181966 
L 110.495616 200.310249 
L 110.791592 200.442241 
L 111.087568 200.577888 
L 111.125291 200.595636 
L 111.383544 200.719266 
L 111.67952 200.864562 
L 111.975495 201.013409 
L 112.122218 201.088929 
L 112.271471 201.167123 
L 112.567447 201.325684 
L 112.863423 201.487688 
L 113.032598 201.582222 
L 113.159399 201.654366 
L 113.455375 201.826152 
L 113.751351 202.001268 
L 113.874541 202.075516 
L 114.047327 202.181585 
L 114.343303 202.366551 
L 114.639279 202.554731 
L 114.661056 202.568809 
L 114.935255 202.749411 
L 115.231231 202.947512 
L 115.399805 203.062102 
L 115.527207 203.150371 
L 115.823183 203.358527 
L 116.099093 203.555395 
L 116.119159 203.569994 
L 116.415135 203.788348 
L 116.711111 204.009667 
L 116.762621 204.048689 
L 117.007087 204.237591 
L 117.303063 204.469191 
L 117.394963 204.541982 
L 117.599039 204.706923 
L 117.895015 204.948963 
L 117.999371 205.035275 
L 118.190991 205.197065 
L 118.486967 205.449715 
L 118.578373 205.528569 
L 118.782943 205.708802 
L 119.078919 205.97224 
L 119.134124 206.021862 
L 119.374895 206.242986 
L 119.668447 206.515155 
L 119.670871 206.517452 
L 119.966847 206.800544 
L 120.182306 207.008448 
L 120.262823 207.087908 
L 120.558799 207.382488 
L 120.677642 207.501742 
L 120.854775 207.683619 
L 121.150751 207.989924 
L 121.155652 207.995035 
L 121.446727 208.305781 
L 121.616481 208.488328 
L 121.742703 208.627374 
L 122.038679 208.955703 
L 122.061888 208.981622 
L 122.334655 209.293851 
L 122.491822 209.474915 
L 122.630631 209.638928 
L 122.907602 209.968208 
L 122.926607 209.991396 
L 123.222583 210.354655 
L 123.309152 210.461502 
L 123.518559 210.726941 
L 123.697355 210.954795 
L 123.814535 211.108274 
L 124.072662 211.448088 
L 124.110511 211.499337 
L 124.406486 211.902052 
L 124.435259 211.941381 
L 124.702462 212.317361 
L 124.785475 212.434675 
L 124.998438 212.744758 
L 125.123752 212.927968 
L 125.294414 213.185277 
L 125.450331 213.421261 
L 125.59039 213.640084 
L 125.765433 213.914555 
L 125.886366 214.110501 
L 126.069261 214.407848 
L 126.182342 214.598034 
L 126.361998 214.901141 
L 126.478318 215.104401 
L 126.643812 215.394434 
L 126.774294 215.631577 
L 126.914855 215.887728 
L 127.07027 216.18184 
L 127.175262 216.381021 
L 127.366246 216.757832 
L 127.425152 216.874314 
L 127.662222 217.362636 
L 127.664631 217.367608 
L 127.893673 217.860901 
L 127.958198 218.006188 
L 128.112478 218.354194 
L 128.254174 218.689034 
L 128.321122 218.847487 
L 128.519617 219.340781 
L 128.55015 219.420654 
L 128.707973 219.834074 
L 128.846126 220.216073 
L 128.886331 220.327367 
L 129.054631 220.820661 
L 129.142102 221.093066 
L 129.212965 221.313954 
L 129.361329 221.807247 
L 129.438078 222.080659 
L 129.499758 222.300541 
L 129.628249 222.793834 
L 129.734054 223.233885 
L 129.746849 223.287127 
L 129.855519 223.78042 
L 129.954311 224.273714 
L 130.03003 224.693814 
L 130.043219 224.767007 
L 130.12223 225.2603 
L 130.191365 225.753594 
L 130.250624 226.246887 
L 130.300006 226.74018 
L 130.326006 227.064831 
L 130.339511 227.233473 
L 130.369139 227.726767 
L 130.388891 228.22006 
L 130.398767 228.713353 
L 130.398767 229.206647 
L 130.388891 229.69994 
L 130.369139 230.193233 
L 130.339511 230.686527 
L 130.326006 230.855169 
L 130.300006 231.17982 
L 130.250624 231.673113 
L 130.191365 232.166406 
L 130.12223 232.6597 
L 130.043219 233.152993 
L 130.03003 233.226186 
L 129.954311 233.646286 
L 129.855519 234.13958 
L 129.746849 234.632873 
L 129.734054 234.686115 
L 129.628249 235.126166 
L 129.499758 235.619459 
L 129.438078 235.839341 
L 129.361329 236.112753 
L 129.212965 236.606046 
L 129.142102 236.826934 
L 129.054631 237.099339 
L 128.886331 237.592633 
L 128.846126 237.703927 
L 128.707973 238.085926 
L 128.55015 238.499346 
L 128.519617 238.579219 
L 128.321122 239.072513 
L 128.254174 239.230966 
L 128.112478 239.565806 
L 127.958198 239.913812 
L 127.893673 240.059099 
L 127.664631 240.552392 
L 127.662222 240.557364 
L 127.425152 241.045686 
L 127.366246 241.162168 
L 127.175262 241.538979 
L 127.07027 241.73816 
L 126.914855 242.032272 
L 126.774294 242.288423 
L 126.643812 242.525566 
L 126.478318 242.815599 
L 126.361998 243.018859 
L 126.182342 243.321966 
L 126.069261 243.512152 
L 125.886366 243.809499 
L 125.765433 244.005445 
L 125.59039 244.279916 
L 125.450331 244.498739 
L 125.294414 244.734723 
L 125.123752 244.992032 
L 124.998438 245.175242 
L 124.785475 245.485325 
L 124.702462 245.602639 
L 124.435259 245.978619 
L 124.406486 246.017948 
L 124.110511 246.420663 
L 124.072662 246.471912 
L 123.814535 246.811726 
L 123.697355 246.965205 
L 123.518559 247.193059 
L 123.309152 247.458498 
L 123.222583 247.565345 
L 122.926607 247.928604 
L 122.907602 247.951792 
L 122.630631 248.281072 
L 122.491822 248.445085 
L 122.334655 248.626149 
L 122.061888 248.938378 
L 122.038679 248.964297 
L 121.742703 249.292626 
L 121.616481 249.431672 
L 121.446727 249.614219 
L 121.155652 249.924965 
L 121.150751 249.930076 
L 120.854775 250.236381 
L 120.677642 250.418258 
L 120.558799 250.537512 
L 120.262823 250.832092 
L 120.182306 250.911552 
L 119.966847 251.119456 
L 119.670871 251.402548 
L 119.668447 251.404845 
L 119.374895 251.677014 
L 119.134124 251.898138 
L 119.078919 251.94776 
L 118.782943 252.211198 
L 118.578373 252.391431 
L 118.486967 252.470285 
L 118.190991 252.722935 
L 117.999371 252.884725 
L 117.895015 252.971037 
L 117.599039 253.213077 
L 117.394963 253.378018 
L 117.303063 253.450809 
L 117.007087 253.682409 
L 116.762621 253.871311 
L 116.711111 253.910333 
L 116.415135 254.131652 
L 116.119159 254.350006 
L 116.099093 254.364605 
L 115.823183 254.561473 
L 115.527207 254.769629 
L 115.399805 254.857898 
L 115.231231 254.972488 
L 114.935255 255.170589 
L 114.661056 255.351191 
L 114.639279 255.365269 
L 114.343303 255.553449 
L 114.047327 255.738415 
L 113.874541 255.844484 
L 113.751351 255.918732 
L 113.455375 256.093848 
L 113.159399 256.265634 
L 113.032598 256.337778 
L 112.863423 256.432312 
L 112.567447 256.594316 
L 112.271471 256.752877 
L 112.122218 256.831071 
L 111.975495 256.906591 
L 111.67952 257.055438 
L 111.383544 257.200734 
L 111.125291 257.324364 
L 111.087568 257.342112 
L 110.791592 257.477759 
L 110.495616 257.609751 
L 110.19964 257.738034 
L 110.010374 257.817658 
L 109.903664 257.86179 
L 109.607688 257.98044 
L 109.311712 258.095281 
L 109.015736 258.206258 
L 108.7263 258.310951 
L 108.71976 258.313277 
L 108.423784 258.414645 
L 108.127808 258.512053 
L 107.831832 258.605449 
L 107.535856 258.694777 
L 107.23988 258.779987 
L 107.151282 258.804244 
L 106.943904 258.860092 
L 106.647928 258.935643 
L 106.351952 259.006984 
L 106.055976 259.074063 
L 105.76 259.136828 
L 105.464024 259.195226 
L 105.168048 259.249205 
L 104.879091 259.297538 
L 104.872072 259.298693 
L 104.576096 259.34295 
L 104.28012 259.382704 
L 103.984144 259.417904 
L 103.688168 259.448498 
L 103.392192 259.474434 
L 103.096216 259.495661 
L 102.80024 259.512126 
L 102.504264 259.52378 
L 102.208288 259.530569 
L 101.912312 259.532443 
L 101.616336 259.529349 
L 101.32036 259.521236 
L 101.024384 259.508053 
L 100.728408 259.489747 
L 100.432432 259.466268 
L 100.136456 259.437563 
L 99.84048 259.403581 
L 99.544505 259.364271 
L 99.248529 259.319581 
z
" clip-path="url(#pa31fe915b7)" style="fill: none; stroke: #000000; stroke-width: 2.5"/>
   </g>
   <g id="patch_3">
    <path d="M 130.4 450.72 
L 130.4 7.2 
" style="fill: none; stroke: #000000; stroke-width: 0.8; stroke-linejoin: miter; stroke-linecap: square"/>
   </g>
   <g id="patch_4">
    <path d="M 278.24 450.72 
L 278.24 7.2 
" style="fill: none"/>
   </g>
   <g id="patch_5">
    <path d="M 7.2 228.96 
L 278.24 228.96 
" style="fill: none; stroke: #000000; stroke-width: 0.8; stroke-linejoin: miter; stroke-linecap: square"/>
   </g>
   <g id="patch_6">
    <path d="M 7.2 7.2 
L 278.24 7.2 
" style="fill: none"/>
   </g>
  </g>
 </g>
 <defs>
  <clipPath id="pa31fe915b7">
   <rect x="7.2" y="7.2" width="271.04" height="443.52"/>
  </clipPath>
 </defs>
</svg>
